<?xml version="1.0" encoding="UTF-8"?>
<svg id="Capa_1" data-name="Capa 1" xmlns="http://www.w3.org/2000/svg" viewBox="0 0 677.45 615.54">
  <defs>
    <style>
      .cls-1 {
        fill: #fff;
      }

      .cls-2 {
        fill: #6e61ff;
      }

      .cls-3 {
        fill: #d1ff00;
      }
    </style>
  </defs>
  <g>
    <path class="cls-3" d="m384.46,615.54c71.08-.17,142.15-.16,213.23-.03"/>
    <path class="cls-3" d="m71.45,615.54c35.73-.22,71.46-.2,107.2-.02"/>
  </g>
  <g>
    <g>
      <path class="cls-1" d="m31.96,513.41c-4.9,0-9.32-.59-13.27-1.76s-7.44-2.88-10.49-5.11c-3.06-2.24-5.79-4.88-8.2-7.94l10.97-12.47c3.55,4.76,7.12,7.96,10.71,9.59,3.59,1.63,7.3,2.45,11.14,2.45,1.92,0,3.66-.25,5.22-.75,1.56-.5,2.77-1.23,3.62-2.18.85-.96,1.28-2.15,1.28-3.57,0-1.07-.27-2.02-.8-2.88-.53-.85-1.26-1.6-2.18-2.24-.92-.64-2.02-1.23-3.3-1.76-1.28-.53-2.63-.99-4.05-1.39-1.42-.39-2.88-.73-4.37-1.01-4.12-.92-7.71-2.06-10.76-3.41-3.06-1.35-5.59-3-7.62-4.95-2.02-1.95-3.53-4.19-4.53-6.71-1-2.52-1.49-5.34-1.49-8.47,0-3.34.76-6.41,2.29-9.22,1.53-2.81,3.59-5.22,6.18-7.25,2.59-2.02,5.59-3.59,9-4.69,3.41-1.1,6.96-1.65,10.66-1.65,4.9,0,9.11.52,12.63,1.54,3.52,1.03,6.53,2.5,9.06,4.42,2.52,1.92,4.67,4.23,6.45,6.93l-11.19,10.76c-1.49-1.85-3.11-3.37-4.85-4.58-1.74-1.21-3.59-2.13-5.54-2.77-1.95-.64-3.96-.96-6.02-.96s-3.96.27-5.49.8c-1.53.53-2.72,1.28-3.57,2.24s-1.28,2.11-1.28,3.46c0,1.21.35,2.24,1.07,3.09.71.85,1.67,1.62,2.88,2.29,1.21.68,2.59,1.24,4.15,1.7,1.56.46,3.2.84,4.9,1.12,3.9.78,7.44,1.81,10.6,3.09,3.16,1.28,5.89,2.84,8.2,4.69,2.31,1.85,4.08,4.03,5.33,6.55,1.24,2.52,1.86,5.45,1.86,8.79,0,5.19-1.26,9.57-3.78,13.16-2.52,3.59-5.97,6.32-10.34,8.2-4.37,1.88-9.39,2.82-15.08,2.82Z"/>
      <path class="cls-1" d="m97.81,513.41c-5.47,0-10.37-1.28-14.7-3.84-4.33-2.56-7.76-6.06-10.28-10.49-2.52-4.44-3.78-9.47-3.78-15.08s1.26-10.64,3.78-15.08c2.52-4.44,5.95-7.94,10.28-10.5,4.33-2.56,9.23-3.84,14.7-3.84,5.04,0,9.68.89,13.91,2.66,4.23,1.78,7.58,4.26,10.07,7.46l-9.27,11.08c-1-1.14-2.17-2.2-3.52-3.2-1.35-.99-2.84-1.77-4.48-2.34-1.63-.57-3.34-.85-5.11-.85-2.7,0-5.08.62-7.14,1.87-2.06,1.24-3.66,2.97-4.79,5.17-1.14,2.2-1.71,4.73-1.71,7.57s.59,5.15,1.76,7.35c1.17,2.2,2.79,3.94,4.85,5.22,2.06,1.28,4.4,1.92,7.03,1.92,1.85,0,3.55-.23,5.11-.69,1.56-.46,3-1.15,4.32-2.08,1.31-.92,2.54-2.06,3.68-3.41l9.16,11.19c-2.41,3.06-5.77,5.47-10.07,7.25-4.3,1.77-8.9,2.66-13.8,2.66Z"/>
      <path class="cls-1" d="m131.06,512.35v-56.58h16.19l.75,18.43-3.2-3.52c.85-3.05,2.25-5.79,4.21-8.2,1.95-2.41,4.24-4.33,6.87-5.75,2.63-1.42,5.43-2.13,8.42-2.13,1.28,0,2.47.11,3.57.32,1.1.21,2.11.46,3.04.75l-4.69,18.86c-.78-.5-1.83-.91-3.14-1.23-1.32-.32-2.68-.48-4.1-.48-1.56,0-3.02.27-4.37.8-1.35.53-2.49,1.3-3.41,2.29-.92,1-1.65,2.17-2.18,3.52-.53,1.35-.8,2.88-.8,4.58v28.34h-17.15Z"/>
      <path class="cls-1" d="m204.15,513.41c-6.25,0-11.69-1.26-16.3-3.78-4.62-2.52-8.2-5.97-10.76-10.34-2.56-4.37-3.84-9.36-3.84-14.97,0-4.33.71-8.31,2.13-11.93,1.42-3.62,3.41-6.77,5.97-9.43,2.56-2.66,5.59-4.72,9.11-6.18,3.52-1.46,7.37-2.18,11.56-2.18s7.62.71,10.92,2.13c3.3,1.42,6.16,3.41,8.58,5.97,2.41,2.56,4.26,5.58,5.54,9.06,1.28,3.48,1.85,7.28,1.71,11.4l-.11,4.58h-45.07l-2.45-9.59h33.67l-1.81,2.02v-2.13c-.14-1.77-.69-3.36-1.65-4.74-.96-1.39-2.22-2.47-3.78-3.25-1.56-.78-3.34-1.17-5.33-1.17-2.77,0-5.13.55-7.09,1.65-1.96,1.1-3.43,2.7-4.42,4.79-1,2.1-1.49,4.67-1.49,7.73s.66,5.84,1.97,8.15c1.31,2.31,3.23,4.1,5.75,5.38,2.52,1.28,5.52,1.92,9,1.92,2.41,0,4.56-.35,6.45-1.07,1.88-.71,3.92-1.92,6.13-3.62l7.99,11.29c-2.2,1.92-4.55,3.48-7.03,4.69-2.49,1.21-5.03,2.11-7.62,2.72-2.59.6-5.17.91-7.72.91Z"/>
      <path class="cls-1" d="m266.59,513.41c-6.25,0-11.69-1.26-16.3-3.78-4.62-2.52-8.2-5.97-10.76-10.34-2.56-4.37-3.84-9.36-3.84-14.97,0-4.33.71-8.31,2.13-11.93,1.42-3.62,3.41-6.77,5.97-9.43,2.56-2.66,5.59-4.72,9.11-6.18,3.52-1.46,7.37-2.18,11.56-2.18s7.62.71,10.92,2.13c3.3,1.42,6.16,3.41,8.58,5.97,2.41,2.56,4.26,5.58,5.54,9.06,1.28,3.48,1.85,7.28,1.71,11.4l-.11,4.58h-45.07l-2.45-9.59h33.67l-1.81,2.02v-2.13c-.14-1.77-.69-3.36-1.65-4.74-.96-1.39-2.22-2.47-3.78-3.25-1.56-.78-3.34-1.17-5.33-1.17-2.77,0-5.13.55-7.09,1.65-1.96,1.1-3.43,2.7-4.42,4.79-1,2.1-1.49,4.67-1.49,7.73s.66,5.84,1.97,8.15c1.31,2.31,3.23,4.1,5.75,5.38,2.52,1.28,5.52,1.92,9,1.92,2.41,0,4.56-.35,6.45-1.07,1.88-.71,3.92-1.92,6.13-3.62l7.99,11.29c-2.2,1.92-4.55,3.48-7.03,4.69-2.49,1.21-5.03,2.11-7.62,2.72-2.59.6-5.17.91-7.72.91Z"/>
      <path class="cls-1" d="m302.07,512.35v-56.58h16.19l.53,11.51-3.41,1.28c.78-2.56,2.18-4.88,4.21-6.98,2.02-2.09,4.46-3.78,7.3-5.06,2.84-1.28,5.82-1.92,8.95-1.92,4.26,0,7.85.87,10.76,2.61,2.91,1.74,5.11,4.33,6.61,7.78,1.49,3.45,2.24,7.66,2.24,12.63v34.74h-17.15v-33.35c0-2.27-.32-4.16-.96-5.65-.64-1.49-1.62-2.61-2.93-3.36-1.32-.75-2.93-1.08-4.85-1.01-1.49,0-2.88.23-4.16.69-1.28.46-2.38,1.14-3.3,2.02-.92.89-1.65,1.9-2.19,3.04-.53,1.14-.8,2.38-.8,3.73v33.88h-17.05Z"/>
      <path class="cls-3" d="m371.54,512.35v-74.59h18.11v58.6h33.24v15.98h-51.36Z"/>
      <path class="cls-3" d="m459.44,513.41c-6.25,0-11.69-1.26-16.3-3.78-4.62-2.52-8.2-5.97-10.76-10.34-2.56-4.37-3.84-9.36-3.84-14.97,0-4.33.71-8.31,2.13-11.93,1.42-3.62,3.41-6.77,5.97-9.43,2.56-2.66,5.59-4.72,9.11-6.18,3.52-1.46,7.37-2.18,11.56-2.18s7.62.71,10.92,2.13c3.3,1.42,6.16,3.41,8.58,5.97,2.41,2.56,4.26,5.58,5.54,9.06,1.28,3.48,1.85,7.28,1.71,11.4l-.11,4.58h-45.07l-2.45-9.59h33.67l-1.81,2.02v-2.13c-.14-1.77-.69-3.36-1.65-4.74-.96-1.39-2.22-2.47-3.78-3.25-1.56-.78-3.34-1.17-5.33-1.17-2.77,0-5.13.55-7.09,1.65-1.96,1.1-3.43,2.7-4.42,4.79-1,2.1-1.49,4.67-1.49,7.73s.66,5.84,1.97,8.15c1.31,2.31,3.23,4.1,5.75,5.38,2.52,1.28,5.52,1.92,9,1.92,2.41,0,4.56-.35,6.45-1.07,1.88-.71,3.92-1.92,6.13-3.62l7.99,11.29c-2.2,1.92-4.55,3.48-7.03,4.69-2.49,1.21-5.03,2.11-7.62,2.72-2.59.6-5.17.91-7.72.91Z"/>
      <path class="cls-3" d="m515.81,513.31c-4.76,0-9-1.26-12.73-3.78-3.73-2.52-6.7-6-8.9-10.44-2.2-4.44-3.3-9.47-3.3-15.08s1.1-10.83,3.3-15.24c2.2-4.4,5.22-7.87,9.06-10.39,3.84-2.52,8.21-3.78,13.11-3.78,2.7,0,5.17.39,7.41,1.17,2.24.78,4.21,1.86,5.91,3.25s3.16,2.98,4.37,4.8c1.21,1.81,2.09,3.75,2.66,5.81l-3.52-.43v-13.43h16.94v56.58h-17.26v-13.64l3.84-.11c-.57,1.99-1.49,3.87-2.77,5.65-1.28,1.78-2.84,3.34-4.69,4.69-1.85,1.35-3.91,2.42-6.18,3.2-2.27.78-4.69,1.17-7.25,1.17Zm4.69-14.38c2.63,0,4.9-.6,6.82-1.81,1.92-1.21,3.41-2.93,4.48-5.17,1.07-2.24,1.6-4.88,1.6-7.94s-.53-5.7-1.6-7.94c-1.07-2.24-2.56-3.98-4.48-5.22-1.92-1.24-4.19-1.87-6.82-1.87s-4.78.62-6.66,1.87c-1.88,1.24-3.36,2.98-4.42,5.22-1.07,2.24-1.6,4.88-1.6,7.94s.53,5.7,1.6,7.94c1.07,2.24,2.54,3.96,4.42,5.17,1.88,1.21,4.1,1.81,6.66,1.81Z"/>
      <path class="cls-3" d="m586.56,513.52c-4.9,0-9.25-1.26-13.05-3.78-3.8-2.52-6.8-6-9-10.44-2.2-4.44-3.3-9.5-3.3-15.18s1.1-10.74,3.3-15.18c2.2-4.44,5.22-7.94,9.06-10.5,3.84-2.56,8.24-3.84,13.21-3.84,2.56,0,5.01.39,7.35,1.17,2.34.78,4.47,1.85,6.39,3.2,1.92,1.35,3.48,2.89,4.69,4.63,1.21,1.74,1.92,3.53,2.13,5.38l-4.05.96v-36.44h17.16v78.85h-15.88l-.96-12.89,3.41.53c-.21,1.78-.91,3.48-2.08,5.11-1.17,1.64-2.68,3.07-4.53,4.32-1.85,1.24-3.96,2.24-6.34,2.98-2.38.75-4.88,1.12-7.51,1.12Zm4.37-14.17c2.63,0,4.9-.64,6.82-1.92,1.92-1.28,3.39-3.05,4.42-5.33,1.03-2.27,1.54-4.94,1.54-7.99s-.52-5.82-1.54-8.1c-1.03-2.27-2.5-4.05-4.42-5.33-1.92-1.28-4.19-1.92-6.82-1.92s-4.88.64-6.77,1.92c-1.88,1.28-3.36,3.06-4.42,5.33-1.07,2.27-1.6,4.97-1.6,8.1s.53,5.72,1.6,7.99c1.07,2.27,2.54,4.05,4.42,5.33,1.88,1.28,4.14,1.92,6.77,1.92Z"/>
      <path class="cls-3" d="m653.9,513.41c-5.54,0-10.43-.89-14.65-2.66-4.23-1.77-7.58-4.16-10.07-7.14l10.34-8.95c2.2,2.2,4.69,3.82,7.46,4.85,2.77,1.03,5.4,1.54,7.88,1.54.99,0,1.88-.11,2.66-.32.78-.21,1.44-.51,1.97-.91.53-.39.94-.85,1.23-1.39.28-.53.43-1.15.43-1.86,0-1.42-.64-2.52-1.92-3.3-.64-.35-1.7-.78-3.2-1.28-1.49-.5-3.41-1.07-5.75-1.7-3.34-.85-6.23-1.87-8.68-3.04-2.45-1.17-4.46-2.54-6.02-4.1-1.42-1.49-2.52-3.14-3.3-4.95-.78-1.81-1.17-3.85-1.17-6.13,0-2.63.62-5.01,1.86-7.14s2.91-3.98,5.01-5.54c2.09-1.56,4.51-2.75,7.24-3.57,2.73-.82,5.56-1.23,8.47-1.23,3.12,0,6.11.36,8.95,1.07,2.84.71,5.49,1.71,7.94,2.98,2.45,1.28,4.64,2.81,6.55,4.58l-8.95,10.02c-1.28-1.21-2.72-2.29-4.32-3.25-1.6-.96-3.25-1.72-4.96-2.29-1.7-.57-3.27-.85-4.69-.85-1.07,0-2.01.09-2.82.27-.82.18-1.51.46-2.08.85-.57.39-1,.85-1.28,1.39-.28.53-.43,1.15-.43,1.86s.2,1.39.59,2.02c.39.64.94,1.17,1.65,1.6.71.43,1.85.91,3.41,1.44,1.56.53,3.69,1.19,6.39,1.97,3.34.92,6.22,1.95,8.63,3.09,2.41,1.14,4.33,2.49,5.75,4.05,1.13,1.21,1.99,2.61,2.56,4.21.57,1.6.85,3.32.85,5.17,0,3.62-1.01,6.84-3.04,9.64-2.02,2.81-4.81,5.01-8.36,6.61-3.55,1.6-7.6,2.4-12.15,2.4Z"/>
    </g>
    <g>
      <g>
        <path class="cls-3" d="m485.39,305.73c.02-2.48-.75-2.92-3.04-2.91-18.54.09-37.07,0-55.61.1-2.88.01-3.78-.84-3.77-3.81.12-31.9.09-63.81.09-95.71,0-6.13-.15-12.21-1.19-18.31-2.78-16.36-8.36-31.45-18.24-44.95-8.67-11.85-19.43-21.14-32.16-28.27-12.85-7.19-27.07-9.62-41.33-11.9-7.58-1.21-15.23-.11-22.83-.51-2.19-.11-1.86,1.59-1.86,2.91-.02,17.17-.05,34.34-.02,51.5,0,1.85-.14,3.06-.58,3.8l3.29,4.44c.31-.02.63-.03.99-.02,4.02.16,8.06,0,12.07.22,5.91.34,11.97.74,17.22,3.62,10.47,5.74,17.29,14.44,20.53,26.15,1.82,6.58,2.68,13.25,1.6,19.73-1.93,11.61-8.22,20.83-18.73,26.51-5.79,3.13-11.82,6.04-18.73,6.03-20.87-.04-41.73-.01-62.6-.01h0c-21.5.01-43.01.08-64.51-.06-3.09-.02-3.91.9-3.9,3.89.08,34.12.06,68.25.01,102.37,0,2.37.63,3.29,3.25,3.28,19.49-.12,38.98-.11,58.47-.01,2.31.01,2.77-.71,2.76-2.85-.09-13.57.05-27.13-.11-40.7-.03-2.94.83-3.75,3.71-3.72,14.93.16,29.88-.22,44.8.27,18.28.6,36.07-1.17,53.11-8.25,4.31-1.79,4.58-1.53,4.6,3.18.06,16.22.15,32.43.1,48.65,0,2.55.57,3.44,3.3,3.44,38.77-.09,77.54-.09,116.31-.02,2.31,0,3.04-.46,3.02-2.91-.12-15.05-.12-30.1.01-45.15Z"/>
        <path class="cls-1" d="m248.99,206.84c8.1,4.06,16.4,7.61,25.33,9.72,9.16,2.17,18.45,2.06,27.7,2.78,2.91.23,3.55-.59,3.53-3.41-.15-16.75-.03-33.49-.17-50.24-.01-1.32.23-2.19.73-2.75l-3.25-4.4c-.8-.01-1.82-.2-3.17-.55-5.49-1.42-10.82-2.96-16.01-5.52-10.79-5.34-18.69-13.33-22.81-24.41-4.74-12.76-4.52-25.87.03-38.82,4.74-13.52,17.05-22.77,31.88-22.92,28.6-.28,57.2-.09,85.8-.09,13.88,0,27.75,0,41.63,0,1.61,0,3,.3,2.99-2.33-.13-20.03-.18-40.06-.02-60.09.02-3.08-.66-3.84-3.76-3.83-35.91.1-71.81,0-107.72.05-11.07.02-22.11.14-33.04,2.6-18.45,4.16-35.21,11.58-49.66,23.99-16.12,13.84-26.95,31.12-32.83,51.38-7.49,25.82-6.64,51.5,4.41,76.16,10.21,22.79,25.67,41.24,48.42,52.65ZM371.31,10.46h43.27v43.27h-43.27V10.46Zm-59.82,0h43.27v43.27h-43.27V10.46Z"/>
      </g>
      <rect class="cls-2" x="371.31" y="10.46" width="43.27" height="43.27"/>
      <rect class="cls-2" x="311.49" y="10.46" width="43.27" height="43.27"/>
    </g>
  </g>
</svg>