<svg version="1.2" xmlns="http://www.w3.org/2000/svg" viewBox="0 0 672 292" width="672" height="292"><style>.a{fill:#d1ff00}.b{fill:#fff}.c{fill:#6e61ff}</style><path class="a" d="m386.7 469q106.6-0.2 213.2 0"/><path class="a" d="m73.7 469c35.7-0.2 71.4-0.2 107.2 0"/><path class="b" d="m248.9 140.1q-13.4 0-24.1-6.3-10.7-6.3-16.9-17.2-6.2-10.9-6.2-24.8 0-13.8 6.2-24.7 6.2-10.9 16.9-17.2 10.7-6.3 24.1-6.3 12.4 0 22.8 4.4 10.4 4.3 16.6 12.2l-15.2 18.2q-2.5-2.8-5.8-5.3-3.3-2.4-7.3-3.8-4.1-1.4-8.4-1.4-6.7 0-11.7 3-5.1 3.1-7.9 8.5-2.8 5.4-2.8 12.4c0 4.7 0.9 8.5 2.9 12.1q2.9 5.4 7.9 8.6 5.1 3.1 11.6 3.1 4.5 0 8.3-1.1 3.9-1.2 7.1-3.4 3.3-2.3 6.1-5.6l15 18.3q-6 7.5-16.5 11.9-10.6 4.4-22.7 4.4z"/><path class="b" d="m303.5 138.3v-92.8h26.6l1.2 30.2-5.3-5.7q2.1-7.5 6.9-13.5 4.8-5.9 11.3-9.4 6.5-3.5 13.8-3.5 3.2 0 5.9 0.5 2.7 0.5 5 1.2l-7.7 31q-1.9-1.3-5.2-2-3.2-0.8-6.7-0.8-3.8 0-7.2 1.3-3.3 1.3-5.6 3.7-2.3 2.5-3.6 5.8-1.3 3.3-1.3 7.5v46.5z"/><path class="b" d="m423.4 140.1q-15.4 0-26.7-6.2-11.4-6.2-17.7-17-6.3-10.7-6.3-24.6 0-10.6 3.5-19.5 3.5-8.9 9.8-15.5 6.3-6.6 15-10.1 8.6-3.6 18.9-3.6c6.9 0 12.5 1.2 17.9 3.5q8.2 3.5 14.1 9.8 6 6.3 9.1 14.8 3.2 8.6 2.8 18.7l-0.2 7.6h-73.9l-4-15.8h55.2l-3 3.3v-3.5q-0.3-4.3-2.7-7.7-2.3-3.4-6.2-5.4-3.8-1.9-8.7-1.9-6.9 0-11.7 2.7-4.8 2.7-7.2 7.9-2.5 5.2-2.5 12.7c0 5 1.1 9.6 3.3 13.3q3.2 5.7 9.4 8.9 6.2 3.1 14.8 3.1 5.9 0 10.6-1.7 4.6-1.8 10-6l13.1 18.6q-5.4 4.7-11.5 7.7-6.2 2.9-12.5 4.4-6.4 1.5-12.7 1.5z"/><path class="b" d="m525.9 140.1q-15.4 0-26.8-6.2-11.3-6.2-17.6-17-6.3-10.7-6.3-24.6 0-10.6 3.5-19.5 3.5-8.9 9.8-15.5 6.3-6.6 14.9-10.1 8.7-3.6 19-3.6c6.9 0 12.5 1.2 17.9 3.5q8.1 3.5 14.1 9.8 5.9 6.3 9.1 14.8 3.1 8.6 2.8 18.7l-0.2 7.6h-74l-4-15.8h55.3l-3 3.3v-3.5q-0.4-4.3-2.7-7.7-2.4-3.4-6.2-5.4-3.9-1.9-8.8-1.9-6.8 0-11.6 2.7-4.8 2.7-7.3 7.9-2.4 5.2-2.4 12.7c0 5 1.1 9.6 3.2 13.3q3.3 5.7 9.5 8.9 6.2 3.1 14.7 3.1 6 0 10.6-1.7 4.6-1.8 10.1-6l13.1 18.6q-5.4 4.7-11.6 7.7-6.1 2.9-12.5 4.4-6.4 1.5-12.6 1.5z"/><path class="b" d="m584.1 138.3v-92.8h26.6l0.8 18.9-5.5 2.1q1.9-6.3 6.9-11.5 4.9-5.1 11.9-8.3 7-3.1 14.7-3.1 10.5 0 17.7 4.3 7.2 4.2 10.8 12.7 3.7 8.5 3.7 20.7v57h-28.1v-54.7q0-5.6-1.6-9.3-1.6-3.6-4.8-5.5-3.3-1.8-8-1.6-3.7 0-6.8 1.1-3.2 1.2-5.4 3.3-2.3 2.2-3.6 5-1.3 2.8-1.3 6.1v55.6h-28z"/><path class="a" d="m144.6 289.2v-136.7h33.2v107.4h61v29.3c0 0-94.2 0-94.2 0z"/><path class="a" d="m301.9 289q-16 0-27.9-6.4-11.8-6.5-18.3-17.7-6.6-11.2-6.6-25.6 0-11.1 3.6-20.4 3.7-9.3 10.2-16.1 6.6-6.8 15.6-10.5 9-3.8 19.7-3.8c7.2 0 13.1 1.2 18.7 3.7q8.5 3.6 14.7 10.2 6.1 6.5 9.4 15.4 3.3 9 2.9 19.5l-0.2 7.8h-76.9l-4.2-16.3h57.5l-3.1 3.4v-3.6q-0.4-4.6-2.8-8.1-2.5-3.6-6.5-5.6-4-2-9.1-2-7.1 0-12.1 2.9-5 2.8-7.5 8.1-2.6 5.4-2.6 13.2c0 5.3 1.1 10 3.4 14q3.4 5.9 9.8 9.2 6.5 3.2 15.4 3.2 6.2 0 11-1.8 4.8-1.8 10.5-6.2l13.6 19.3q-5.6 4.9-12 8-6.4 3.1-13 4.7-6.7 1.5-13.2 1.5z"/><path class="a" d="m398.2 288.8q-12.2 0-21.8-6.4-9.5-6.5-15.2-17.9-5.6-11.3-5.6-25.7c0-9.6 1.9-18.5 5.6-26q5.7-11.3 15.5-17.8 9.8-6.5 22.4-6.5 6.9 0 12.6 2 5.8 2 10.1 5.6 4.4 3.5 7.5 8.2 3.1 4.6 4.5 9.9l-6-0.7v-23h29v96.7h-29.5v-23.3l6.5-0.2q-1.4 5.1-4.7 9.7-3.3 4.5-8 8-4.7 3.4-10.6 5.4-5.8 2-12.3 2zm8-24.5q6.7 0 11.6-3.1 4.9-3.1 7.7-8.9 2.7-5.7 2.7-13.5 0-7.8-2.7-13.6-2.8-5.7-7.7-8.9-4.9-3.2-11.6-3.2c-4.5 0-8.2 1.1-11.4 3.2q-4.8 3.2-7.6 8.9-2.7 5.8-2.7 13.6 0 7.8 2.7 13.5 2.8 5.8 7.6 8.9 4.8 3.1 11.4 3.1z"/><path class="a" d="m519 289.2q-12.5 0-22.3-6.5-9.7-6.4-15.4-17.8-5.6-11.4-5.6-25.9 0-14.6 5.6-26 5.7-11.4 15.5-17.9 9.8-6.6 22.6-6.6 6.5 0 12.5 2 6.1 2 11 5.5 4.9 3.4 8 7.9 3.1 4.5 3.6 9.2l-6.9 1.6v-62.2h29.3v134.7h-27.1l-1.7-22 5.9 0.9q-0.6 4.5-3.6 8.7-3 4.2-7.7 7.4-4.7 3.2-10.8 5.1-6.1 1.9-12.9 1.9zm7.5-24.2q6.7 0 11.6-3.3 5-3.3 7.6-9.1 2.6-5.8 2.6-13.6c0-5.3-0.9-10-2.6-13.9q-2.7-5.8-7.6-9.1-4.9-3.3-11.6-3.3-6.7 0-11.6 3.3-4.8 3.3-7.5 9.1-2.7 5.8-2.7 13.9c0 5.3 0.9 9.7 2.7 13.6q2.7 5.8 7.5 9.1 4.9 3.3 11.6 3.3z"/><path class="a" d="m631.5 289q-14.2 0-25.1-4.5-10.8-4.6-17.2-12.2l17.7-15.3q5.6 5.6 12.7 8.3 7.1 2.6 13.5 2.6 2.5 0 4.5-0.6 2-0.5 3.4-1.5 1.4-1 2.1-2.4 0.7-1.3 0.7-3.2 0-3.6-3.2-5.6-1.7-0.9-5.5-2.2-3.8-1.2-9.8-2.9-8.6-2.2-14.9-5.2-6.2-3-10.2-7-3.7-3.8-5.7-8.4-2-4.7-2-10.5 0-6.7 3.2-12.2 3.2-5.5 8.6-9.5 5.3-4 12.3-6.1 7-2.1 14.5-2.1 8 0 15.3 1.9 7.3 1.8 13.6 5.1 6.2 3.2 11.2 7.8l-15.3 17.1q-3.3-3.1-7.4-5.6-4.1-2.4-8.5-3.9-4.3-1.4-8-1.4-2.7 0-4.8 0.4-2.1 0.5-3.6 1.5-1.4 1-2.1 2.4-0.8 1.3-0.8 3.1 0 1.9 1 3.5 1 1.6 2.9 2.7 1.8 1.1 5.8 2.5 4 1.4 10.9 3.4 8.6 2.3 14.7 5.2 6.2 3 9.9 7 2.9 3.1 4.4 7.2 1.4 4.1 1.4 8.8 0 9.3-5.2 16.5-5.2 7.1-14.3 11.2-9.1 4.1-20.7 4.1z"/><path class="a" d="m240.6 250.1c0-2.1-0.7-2.4-2.5-2.4-15.2 0-30.3 0-45.5 0.1-2.4 0-3.1-0.7-3.1-3.2 0.1-26.1 0.1-52.2 0.1-78.2 0-5.1-0.1-10-1-15-2.3-13.4-6.8-25.7-14.9-36.8-7.1-9.7-15.9-17.3-26.3-23.1-10.5-5.9-22.1-7.9-33.8-9.7-6.2-1-12.5-0.1-18.7-0.4-1.8-0.1-1.5 1.3-1.5 2.3q0 21.1 0 42.2c0 1.5-0.1 2.5-0.5 3.1l2.7 3.6q0.4-0.1 0.8 0c3.3 0.1 6.6 0 9.9 0.2 4.8 0.2 9.8 0.6 14 2.9 8.6 4.7 14.2 11.8 16.8 21.4 1.5 5.4 2.2 10.8 1.3 16.1-1.5 9.5-6.7 17.1-15.3 21.7-4.7 2.6-9.6 5-15.3 5-17.1-0.1-34.1-0.1-51.2-0.1-17.6 0-35.2 0.1-52.8 0-2.5 0-3.1 0.7-3.1 3.2q0 41.8 0 83.7c0 1.9 0.5 2.7 2.6 2.7q23.9-0.2 47.8 0c1.9 0 2.3-0.6 2.3-2.4-0.1-11.1 0-22.1-0.1-33.2 0-2.5 0.7-3.1 3-3.1 12.2 0.1 24.5-0.2 36.7 0.2 14.9 0.5 29.5-0.9 43.4-6.7 3.5-1.5 3.8-1.3 3.8 2.6 0 13.2 0.1 26.5 0 39.8 0 2.1 0.5 2.8 2.7 2.8q47.6-0.1 95.2 0c1.9 0 2.5-0.4 2.4-2.4q-0.1-18.5 0-36.9z"/><path class="b" d="m47.2 169.2c6.6 3.3 13.4 6.2 20.7 7.9 7.5 1.8 15.1 1.7 22.7 2.3 2.4 0.2 2.9-0.5 2.9-2.8-0.2-13.7-0.1-27.4-0.2-41.1 0-1.1 0.2-1.8 0.6-2.2l-2.6-3.6c-0.7 0-1.5-0.2-2.6-0.5-4.5-1.1-8.9-2.4-13.1-4.5-8.9-4.4-15.3-10.9-18.7-20-3.9-10.4-3.7-21.1 0-31.7 3.9-11.1 14-18.6 26.1-18.7 23.4-0.3 46.8-0.1 70.2-0.1q17 0 34 0c1.3 0 2.5 0.2 2.5-1.9-0.1-16.4-0.2-32.8-0.1-49.2 0.1-2.5-0.5-3.1-3-3.1-29.4 0.1-58.8 0-88.1 0-9.1 0-18.1 0.2-27 2.2-15.1 3.4-28.8 9.4-40.7 19.6-13.2 11.3-22 25.4-26.8 42-6.1 21.1-5.4 42.1 3.6 62.3 8.3 18.6 21 33.7 39.6 43.1zm100-160.7h35.4v35.4h-35.4zm-48.9 0h35.4v35.4h-35.4z"/><path fill-rule="evenodd" class="c" d="m147.3 8.6h35.3v35.4h-35.3z"/><path fill-rule="evenodd" class="c" d="m98.3 8.6h35.4v35.4h-35.4z"/></svg>