<?xml version="1.0" encoding="UTF-8"?>
<svg id="Capa_1" data-name="Capa 1" xmlns="http://www.w3.org/2000/svg" viewBox="0 0 539.23 648.66">
  <defs>
    <style>
      .cls-1 {
        fill: #fff;
      }

      .cls-2 {
        fill: #6e61ff;
      }

      .cls-3 {
        fill: #d1ff00;
      }
    </style>
  </defs>
  <g>
    <path class="cls-3" d="m539.23,560.5c.04-4.55-1.38-5.35-5.57-5.33-33.98.17-67.97,0-101.95.18-5.29.03-6.94-1.54-6.92-6.99.21-58.49.16-116.98.17-175.47,0-11.23-.28-22.39-2.18-33.57-5.1-29.99-15.33-57.65-33.44-82.41-15.89-21.72-35.62-38.76-58.97-51.83-23.56-13.19-49.64-17.64-75.78-21.81-13.9-2.22-27.91-.2-41.86-.93-4.01-.21-3.41,2.91-3.41,5.33-.04,31.47-.09,62.95-.04,94.42,0,3.4-.26,5.62-1.07,6.96l6.02,8.14c.56-.04,1.16-.06,1.82-.03,7.37.29,14.77-.01,22.13.41,10.84.62,21.94,1.36,31.57,6.63,19.2,10.52,31.69,26.47,37.63,47.94,3.33,12.06,4.9,24.28,2.93,36.18-3.54,21.29-15.07,38.19-34.33,48.6-10.62,5.74-21.67,11.08-34.34,11.06-38.26-.06-76.51-.02-114.77-.02v.02c-39.42,0-78.84.12-118.27-.14-5.67-.04-7.16,1.65-7.15,7.12.15,62.56.11,125.12.02,187.68,0,4.35,1.16,6.04,5.96,6.01,35.73-.22,71.46-.2,107.2-.02,4.23.02,5.08-1.29,5.05-5.23-.16-24.87.09-49.75-.2-74.62-.06-5.4,1.52-6.87,6.8-6.82,27.38.3,54.78-.39,82.13.5,33.52,1.09,66.13-2.14,97.37-15.12,7.9-3.28,8.39-2.81,8.43,5.82.11,29.73.28,59.46.18,89.19-.02,4.67,1.04,6.31,6.06,6.3,71.08-.17,142.15-.16,213.23-.03,4.23,0,5.57-.84,5.54-5.34-.22-27.59-.21-55.19.03-82.78Z"/>
    <path class="cls-1" d="m105.82,379.2c14.84,7.45,30.07,13.96,46.43,17.83,16.79,3.97,33.82,3.77,50.79,5.1,5.34.42,6.51-1.08,6.46-6.25-.27-30.7-.06-61.4-.31-92.1-.02-2.42.43-4.01,1.34-5.04l-5.96-8.07c-1.47-.02-3.34-.36-5.82-1-10.07-2.61-19.84-5.42-29.35-10.12-19.79-9.78-34.27-24.44-41.82-44.75-8.69-23.39-8.28-47.43.05-71.17,8.69-24.78,31.25-41.75,58.44-42.01,52.43-.51,104.86-.16,157.3-.16,25.44,0,50.88,0,76.32.02,2.95,0,5.51.55,5.47-4.27-.24-36.72-.32-73.45-.04-110.17.04-5.66-1.2-7.04-6.89-7.03-65.83.19-131.66,0-197.49.1-20.29.03-40.53.26-60.57,4.77-33.83,7.62-64.54,21.23-91.04,43.98-29.56,25.38-49.41,57.04-60.19,94.2-13.73,47.34-12.18,94.42,8.08,139.62,18.72,41.77,47.07,75.61,88.77,96.53ZM330.09,19.18h79.32v79.32h-79.32V19.18Zm-109.67,0h79.32v79.32h-79.32V19.18Z"/>
  </g>
  <rect class="cls-2" x="330.09" y="19.18" width="79.32" height="79.32"/>
  <rect class="cls-2" x="220.42" y="19.18" width="79.32" height="79.32"/>
</svg>