<?xml version="1.0" encoding="UTF-8"?>
<svg id="Capa_1" data-name="Capa 1" xmlns="http://www.w3.org/2000/svg" viewBox="0 0 671.68 469.02">
  <defs>
    <style>
      .cls-1 {
        fill: #fff;
      }

      .cls-2 {
        fill: #6e61ff;
      }

      .cls-3 {
        fill: #d1ff00;
      }
    </style>
  </defs>
  <g>
    <path class="cls-3" d="m386.66,469.01c71.08-.17,142.15-.16,213.23-.03"/>
    <path class="cls-3" d="m73.65,469.02c35.73-.22,71.46-.2,107.2-.02"/>
  </g>
  <g>
    <path class="cls-1" d="m248.93,140.09c-8.98,0-17.02-2.1-24.13-6.29-7.11-4.2-12.74-9.94-16.87-17.22-4.14-7.28-6.21-15.53-6.21-24.74s2.07-17.45,6.21-24.74c4.14-7.28,9.76-13.03,16.87-17.22,7.11-4.2,15.15-6.29,24.13-6.29,8.28,0,15.88,1.46,22.82,4.37,6.93,2.92,12.44,6.99,16.52,12.24l-15.21,18.18c-1.63-1.86-3.56-3.61-5.77-5.25-2.22-1.63-4.66-2.91-7.34-3.85-2.68-.93-5.48-1.4-8.39-1.4-4.43,0-8.34,1.02-11.71,3.06-3.38,2.04-6,4.87-7.87,8.48-1.87,3.62-2.8,7.75-2.8,12.41s.96,8.45,2.89,12.06c1.92,3.61,4.57,6.47,7.95,8.57,3.38,2.1,7.23,3.15,11.54,3.15,3.03,0,5.83-.38,8.39-1.14,2.56-.76,4.92-1.89,7.08-3.41,2.16-1.51,4.17-3.38,6.03-5.6l15.03,18.36c-3.96,5.01-9.47,8.98-16.52,11.89-7.05,2.91-14.6,4.37-22.64,4.37Z"/>
    <path class="cls-1" d="m303.48,138.34V45.5h26.57l1.22,30.25-5.24-5.77c1.4-5.01,3.7-9.5,6.91-13.46,3.2-3.96,6.96-7.11,11.28-9.44,4.31-2.33,8.92-3.5,13.81-3.5,2.1,0,4.05.17,5.86.52,1.8.35,3.47.76,4.98,1.22l-7.69,30.95c-1.29-.81-3-1.49-5.16-2.01-2.16-.52-4.4-.79-6.73-.79-2.56,0-4.95.44-7.17,1.31-2.22.87-4.08,2.13-5.6,3.76-1.52,1.63-2.71,3.56-3.58,5.77-.88,2.22-1.31,4.72-1.31,7.52v46.51h-28.15Z"/>
    <path class="cls-1" d="m423.41,140.09c-10.26,0-19.18-2.07-26.75-6.21-7.58-4.14-13.46-9.79-17.66-16.96-4.2-7.17-6.29-15.36-6.29-24.57,0-7.11,1.16-13.64,3.5-19.58,2.33-5.95,5.6-11.1,9.79-15.47,4.2-4.37,9.18-7.75,14.95-10.14,5.77-2.39,12.09-3.58,18.97-3.58s12.5,1.17,17.92,3.5c5.42,2.33,10.11,5.6,14.08,9.79,3.96,4.19,6.99,9.15,9.09,14.86,2.1,5.71,3.03,11.95,2.8,18.71l-.18,7.52h-73.96l-4.02-15.74h55.25l-2.97,3.32v-3.5c-.23-2.91-1.14-5.51-2.71-7.78-1.57-2.27-3.64-4.05-6.21-5.33-2.57-1.28-5.48-1.92-8.74-1.92-4.55,0-8.42.9-11.63,2.71-3.21,1.81-5.62,4.43-7.26,7.87-1.63,3.44-2.45,7.67-2.45,12.68s1.08,9.59,3.23,13.37c2.16,3.79,5.3,6.73,9.44,8.83,4.14,2.1,9.06,3.15,14.77,3.15,3.96,0,7.49-.58,10.58-1.75,3.09-1.16,6.44-3.15,10.05-5.94l13.11,18.53c-3.61,3.15-7.46,5.71-11.54,7.69-4.08,1.98-8.25,3.47-12.5,4.46-4.26.99-8.48,1.49-12.68,1.49Z"/>
    <path class="cls-1" d="m525.87,140.09c-10.26,0-19.18-2.07-26.75-6.21-7.58-4.14-13.46-9.79-17.66-16.96-4.2-7.17-6.29-15.36-6.29-24.57,0-7.11,1.16-13.64,3.5-19.58,2.33-5.95,5.6-11.1,9.79-15.47,4.2-4.37,9.18-7.75,14.95-10.14,5.77-2.39,12.09-3.58,18.97-3.58s12.5,1.17,17.92,3.5c5.42,2.33,10.11,5.6,14.08,9.79,3.96,4.19,6.99,9.15,9.09,14.86,2.1,5.71,3.03,11.95,2.8,18.71l-.18,7.52h-73.96l-4.02-15.74h55.25l-2.97,3.32v-3.5c-.23-2.91-1.14-5.51-2.71-7.78-1.57-2.27-3.64-4.05-6.21-5.33-2.57-1.28-5.48-1.92-8.74-1.92-4.55,0-8.42.9-11.63,2.71-3.21,1.81-5.62,4.43-7.26,7.87-1.63,3.44-2.45,7.67-2.45,12.68s1.08,9.59,3.23,13.37c2.16,3.79,5.3,6.73,9.44,8.83,4.14,2.1,9.06,3.15,14.77,3.15,3.96,0,7.49-.58,10.58-1.75,3.09-1.16,6.44-3.15,10.05-5.94l13.11,18.53c-3.61,3.15-7.46,5.71-11.54,7.69-4.08,1.98-8.25,3.47-12.5,4.46-4.26.99-8.48,1.49-12.68,1.49Z"/>
    <path class="cls-1" d="m584.09,138.34V45.5h26.57l.88,18.88-5.59,2.1c1.28-4.2,3.58-8.01,6.91-11.45,3.32-3.44,7.31-6.21,11.98-8.3,4.66-2.1,9.56-3.15,14.69-3.15,7,0,12.88,1.43,17.66,4.28,4.78,2.86,8.39,7.11,10.84,12.76,2.45,5.65,3.67,12.56,3.67,20.72v57h-28.15v-54.72c0-3.73-.52-6.82-1.57-9.27-1.05-2.45-2.65-4.28-4.81-5.51-2.16-1.22-4.81-1.77-7.95-1.66-2.45,0-4.72.38-6.82,1.14-2.1.76-3.91,1.87-5.42,3.32-1.52,1.46-2.71,3.12-3.59,4.98-.88,1.87-1.31,3.91-1.31,6.12v55.6h-27.97Z"/>
    <path class="cls-3" d="m144.61,289.22v-136.71h33.2v107.42h60.94v29.3h-94.14Z"/>
    <path class="cls-3" d="m301.89,289.01c-10.68,0-19.96-2.15-27.85-6.46-7.89-4.31-14.01-10.19-18.38-17.66-4.37-7.46-6.55-15.99-6.55-25.57,0-7.4,1.21-14.2,3.64-20.39,2.43-6.19,5.83-11.56,10.19-16.11,4.37-4.55,9.56-8.07,15.56-10.56,6.01-2.49,12.59-3.73,19.75-3.73s13.02,1.21,18.66,3.64c5.64,2.43,10.53,5.82,14.65,10.19,4.12,4.37,7.28,9.53,9.46,15.47,2.18,5.95,3.16,12.44,2.91,19.48l-.18,7.83h-76.99l-4.18-16.38h57.52l-3.1,3.46v-3.64c-.24-3.03-1.18-5.73-2.82-8.1-1.64-2.37-3.79-4.21-6.46-5.55-2.67-1.33-5.71-2-9.1-2-4.73,0-8.77.94-12.1,2.82-3.34,1.88-5.86,4.61-7.55,8.19-1.7,3.58-2.55,7.98-2.55,13.2s1.12,9.98,3.37,13.92c2.24,3.95,5.52,7.01,9.83,9.19,4.31,2.18,9.43,3.28,15.38,3.28,4.13,0,7.8-.61,11.01-1.82,3.21-1.21,6.7-3.28,10.46-6.19l13.65,19.29c-3.76,3.28-7.77,5.95-12.01,8.01-4.25,2.07-8.59,3.61-13.02,4.64-4.43,1.03-8.83,1.55-13.2,1.55Z"/>
    <path class="cls-3" d="m398.17,288.83c-8.13,0-15.38-2.15-21.75-6.46-6.37-4.31-11.44-10.25-15.2-17.84-3.76-7.58-5.64-16.17-5.64-25.75s1.88-18.5,5.64-26.03c3.76-7.52,8.92-13.44,15.47-17.75,6.55-4.31,14.02-6.46,22.39-6.46,4.61,0,8.83.67,12.65,2,3.82,1.34,7.19,3.18,10.1,5.55s5.4,5.1,7.46,8.19c2.06,3.09,3.58,6.4,4.55,9.92l-6.01-.73v-22.93h28.94v96.65h-29.49v-23.3l6.55-.18c-.97,3.4-2.55,6.61-4.73,9.65-2.18,3.04-4.85,5.71-8.01,8.01-3.16,2.31-6.68,4.13-10.56,5.46-3.89,1.33-8.01,2-12.38,2Zm8.01-24.57c4.49,0,8.37-1.03,11.65-3.09,3.28-2.06,5.82-5.01,7.65-8.83,1.82-3.82,2.73-8.34,2.73-13.56s-.91-9.74-2.73-13.56c-1.82-3.82-4.37-6.79-7.65-8.92-3.28-2.12-7.16-3.19-11.65-3.19s-8.16,1.06-11.38,3.19c-3.22,2.12-5.73,5.1-7.55,8.92-1.82,3.82-2.73,8.34-2.73,13.56s.91,9.74,2.73,13.56c1.82,3.82,4.34,6.77,7.55,8.83,3.21,2.06,7.01,3.09,11.38,3.09Z"/>
    <path class="cls-3" d="m519.03,289.19c-8.37,0-15.81-2.15-22.3-6.46-6.49-4.31-11.62-10.25-15.38-17.84-3.76-7.58-5.64-16.23-5.64-25.94s1.88-18.35,5.64-25.94c3.76-7.58,8.92-13.56,15.47-17.93,6.55-4.37,14.07-6.55,22.57-6.55,4.37,0,8.56.67,12.56,2,4,1.34,7.64,3.16,10.92,5.46,3.28,2.31,5.94,4.94,8.01,7.92,2.06,2.97,3.28,6.04,3.64,9.19l-6.92,1.64v-62.25h29.31v134.69h-27.12l-1.64-22.02,5.83.91c-.37,3.03-1.55,5.95-3.55,8.74-2,2.79-4.58,5.25-7.73,7.37-3.16,2.12-6.77,3.82-10.83,5.1-4.07,1.27-8.34,1.91-12.83,1.91Zm7.46-24.21c4.49,0,8.37-1.09,11.65-3.28,3.28-2.18,5.79-5.22,7.55-9.1,1.76-3.88,2.64-8.43,2.64-13.65s-.88-9.95-2.64-13.83c-1.76-3.88-4.28-6.92-7.55-9.1-3.28-2.18-7.16-3.28-11.65-3.28s-8.34,1.09-11.56,3.28c-3.22,2.18-5.73,5.22-7.55,9.1-1.82,3.88-2.73,8.49-2.73,13.83s.91,9.77,2.73,13.65c1.82,3.89,4.34,6.92,7.55,9.1,3.21,2.18,7.07,3.28,11.56,3.28Z"/>
    <path class="cls-3" d="m631.46,289.01c-9.47,0-17.81-1.52-25.03-4.55-7.22-3.03-12.95-7.1-17.2-12.19l17.66-15.29c3.76,3.76,8.01,6.52,12.74,8.28,4.73,1.76,9.22,2.64,13.47,2.64,1.7,0,3.21-.18,4.55-.55,1.33-.36,2.46-.88,3.37-1.55.91-.67,1.61-1.46,2.09-2.37.48-.91.73-1.97.73-3.18,0-2.43-1.09-4.31-3.28-5.64-1.09-.6-2.91-1.33-5.46-2.18-2.55-.85-5.83-1.82-9.83-2.91-5.71-1.46-10.65-3.19-14.83-5.19-4.18-2-7.62-4.34-10.28-7.01-2.43-2.55-4.31-5.37-5.64-8.46-1.34-3.09-2-6.58-2-10.46,0-4.49,1.06-8.56,3.18-12.2,2.12-3.64,4.97-6.79,8.56-9.47,3.58-2.67,7.7-4.7,12.38-6.1,4.67-1.39,9.49-2.09,14.47-2.09,5.34,0,10.43.61,15.29,1.82,4.85,1.21,9.37,2.91,13.56,5.1,4.19,2.18,7.92,4.8,11.2,7.83l-15.29,17.11c-2.18-2.06-4.64-3.91-7.37-5.55-2.73-1.64-5.55-2.94-8.47-3.91-2.91-.97-5.58-1.46-8.01-1.46-1.82,0-3.43.15-4.82.46-1.39.3-2.58.79-3.55,1.46-.97.67-1.7,1.46-2.18,2.37-.49.91-.73,1.97-.73,3.18s.33,2.37,1,3.46c.66,1.09,1.6,2,2.82,2.73,1.21.73,3.16,1.55,5.83,2.46,2.67.91,6.31,2.03,10.92,3.37,5.7,1.58,10.62,3.34,14.74,5.28,4.13,1.94,7.4,4.25,9.83,6.92,1.94,2.06,3.39,4.46,4.37,7.19.97,2.73,1.46,5.67,1.46,8.83,0,6.19-1.73,11.68-5.19,16.47-3.46,4.79-8.22,8.55-14.29,11.28-6.07,2.73-12.99,4.1-20.75,4.1Z"/>
    <g>
      <g>
        <path class="cls-3" d="m240.56,250.05c.02-2.03-.62-2.39-2.48-2.38-15.16.07-30.32,0-45.48.08-2.36.01-3.09-.69-3.09-3.12.09-26.09.07-52.19.08-78.28,0-5.01-.13-9.99-.97-14.98-2.28-13.38-6.84-25.72-14.92-36.76-7.09-9.69-15.89-17.29-26.31-23.12-10.51-5.88-22.14-7.87-33.81-9.73-6.2-.99-12.45-.09-18.67-.41-1.79-.09-1.52,1.3-1.52,2.38-.02,14.04-.04,28.08-.02,42.12,0,1.52-.11,2.51-.48,3.1l2.69,3.63c.25-.02.52-.03.81-.01,3.29.13,6.59,0,9.87.18,4.83.28,9.79.6,14.08,2.96,8.57,4.69,14.14,11.81,16.79,21.39,1.49,5.38,2.19,10.83,1.31,16.14-1.58,9.5-6.72,17.04-15.32,21.68-4.74,2.56-9.67,4.94-15.32,4.93-17.07-.03-34.13-.01-51.2-.01h0c-17.59,0-35.17.06-52.76-.05-2.53-.02-3.19.74-3.19,3.18.07,27.91.05,55.82,0,83.73,0,1.94.52,2.69,2.66,2.68,15.94-.1,31.88-.09,47.82,0,1.89,0,2.27-.58,2.25-2.34-.07-11.1.04-22.19-.09-33.29-.03-2.41.68-3.07,3.03-3.04,12.21.13,24.44-.18,36.64.22,14.95.49,29.5-.96,43.44-6.75,3.52-1.46,3.75-1.25,3.76,2.6.05,13.26.12,26.53.08,39.79,0,2.08.46,2.82,2.7,2.81,31.71-.08,63.42-.07,95.12-.01,1.89,0,2.49-.37,2.47-2.38-.1-12.31-.1-24.62.01-36.93Z"/>
        <path class="cls-1" d="m47.21,169.17c6.62,3.32,13.42,6.23,20.71,7.95,7.49,1.77,15.09,1.68,22.66,2.27,2.38.19,2.9-.48,2.88-2.79-.12-13.7-.03-27.39-.14-41.09,0-1.08.19-1.79.6-2.25l-2.66-3.6c-.66,0-1.49-.16-2.6-.45-4.49-1.16-8.85-2.42-13.09-4.51-8.83-4.36-15.29-10.9-18.66-19.96-3.88-10.43-3.69-21.16.02-31.75,3.88-11.06,13.94-18.63,26.07-18.74,23.39-.23,46.78-.07,70.17-.07,11.35,0,22.7,0,34.05,0,1.31,0,2.46.25,2.44-1.9-.11-16.38-.14-32.77-.02-49.15.02-2.52-.54-3.14-3.07-3.14-29.37.08-58.74,0-88.1.04-9.05.01-18.08.12-27.02,2.13-15.09,3.4-28.79,9.47-40.62,19.62-13.19,11.32-22.04,25.45-26.85,42.02-6.12,21.12-5.43,42.12,3.6,62.29,8.35,18.64,21,33.73,39.6,43.06ZM147.26,8.56h35.39v35.39h-35.39V8.56Zm-48.93,0h35.39v35.39h-35.39V8.56Z"/>
      </g>
      <rect class="cls-2" x="147.26" y="8.56" width="35.39" height="35.39"/>
      <rect class="cls-2" x="98.33" y="8.56" width="35.39" height="35.39"/>
    </g>
  </g>
</svg>